<?xml version="1.0" encoding="UTF-8"?>
<svg id="Layer_2" data-name="Layer 2" xmlns="http://www.w3.org/2000/svg" viewBox="0 0 570.88 516.08">
  <defs>
    <style>
      .cls-1 {
        fill: #ffde17;
        stroke: #000;
        stroke-miterlimit: 10;
        stroke-width: 7px;
      }
    </style>
  </defs>
  <g id="Layer_1-2" data-name="Layer 1">
    <path class="cls-1" d="M214.59,68.53c-6.22,11.93-12.48,23.97-15.96,36.97-5.98,22.33-3.54,46.71-12.59,67.99-1.34,3.15-3.18,6.45-6.37,7.71-1.59.63-3.34.67-5.04.67-34.51.03-68.28-13.78-95.21-35.37-26.93-21.59-47.31-50.59-61.88-81.87,36.01,111.64,47.26,231.19,32.7,347.58-13.45-8.85-28.9-14.64-44.86-16.83-.59,26.43-1.19,52.86-1.78,79.29,5.07-1.14,10.13-2.28,15.2-3.42,13.15-15.22,31.26-26.09,50.87-30.53,3.41-7.39,11.46-12.37,19.59-12.12,12.77-9.57,25.54-19.14,38.31-28.72,9.52-7.14,19.04-14.28,28.57-21.41,15.71-11.78,31.43-23.56,47.14-35.33,19.54-14.64,39.07-29.29,58.61-43.93-.71,17.38,17.44,28.49,28.27,42.11,7.67,9.64,12.07,21.64,20.27,30.84,5.95,6.67,13.61,11.54,21.05,16.49,48.53,32.34,91.95,72.34,128.16,118.06,1.57-26.15-11.39-50.72-23.96-73.7-16.4-29.97-32.88-60.06-53.44-87.35-12.99-17.25-27.58-33.32-39.44-51.37-9.6-14.6-17.32-30.37-24.24-46.41-2.61-6.04-5.04-13.26-1.63-18.89,2.68-4.43,8.09-6.24,13.09-7.59,41.18-11.13,84.29-12.92,126.05-21.62,41.76-8.7,84.18-25.91,109.87-59.96-35.2-25.3-83.04-21.12-125.73-13.6-51.21,9.02-103.32,21.9-145.56,52.23.77-.55-4.87-21.54-5.27-23.82-1.44-8.1-2.58-16.25-3.6-24.41-2.05-16.34-3.59-32.75-5.94-49.06-2.31-16.02-5.39-32.01-10.7-47.33-2.63-7.59-5.81-15-9.67-22.06-4.28-7.82-8.45-12.46-13.72-2.98-10.9,19.6-20.77,39.85-31.14,59.74Z"/>
  </g>
</svg>